<?xml version="1.0" ?><svg height="512px" id="Layer_1" style="enable-background:new 0 0 512 512;" version="1.1" viewBox="0 0 512 512" width="512px" xml:space="preserve" xmlns="http://www.w3.org/2000/svg" xmlns:xlink="http://www.w3.org/1999/xlink"><style type="text/css">
	.st0{opacity:0.5;fill:#D8E3DD;}
	.st1{fill:none;stroke:#1A1A18;stroke-width:10;stroke-linecap:round;stroke-linejoin:round;stroke-miterlimit:10;}
</style><path class="st0" d="M409.3,330h-27.2v-30.2H412L275,115.7L138,299.8h29.9V330h-27.2c-30.4,0-55,24.6-55,55v87.2h82.2h52.7h108.9  h52.7h82.2V385C464.3,354.6,439.7,330,409.3,330z"/><g><polygon class="st1" points="363.1,282.8 256,135.7 148.9,282.8 148.9,455.2 363.1,455.2  "/><polygon class="st1" points="119,282.8 148.9,282.8 256,135.7 363.1,282.8 393,282.8 256,98.7  "/><path class="st1" d="M201.5,338.2c0-30.1,24.4-54.5,54.5-54.5s54.5,24.4,54.5,54.5v117H201.5V338.2z"/><circle class="st1" cx="256" cy="227.6" r="24.3"/><line class="st1" x1="256" x2="256" y1="98.7" y2="56.8"/><line class="st1" x1="273.5" x2="238.5" y1="72.8" y2="72.8"/><path class="st1" d="M121.7,313h27.2v142.2H66.7V368C66.7,337.6,91.3,313,121.7,313z"/><path class="st1" d="M390.3,313h-27.2v142.2h82.2V368C445.3,337.6,420.7,313,390.3,313z"/></g></svg>